<svg xmlns="http://www.w3.org/2000/svg" xmlns:svg="http://www.w3.org/2000/svg" width="320" height="120">
 <!-- Created with SVG-edit - http://svg-edit.googlecode.com/ -->
 <g>
  <title>Layer 2</title>
  <path stroke="#000000" fill-opacity="0.6" id="svg_8" d="m35.626469,99.347298c61.477642,-38.403065 30.738819,-28.579025 81.649998,-41.975441c50.911171,-13.396416 63.398827,7.144753 110.467644,-5.358566c47.068817,-12.503323 91.25589,-50.013292 91.25589,-50.013292c0,0 -43.226471,48.227102 -57.635315,55.371858c-14.408813,7.144753 -26.896454,17.861893 -61.477631,17.861893c-34.581177,0 -16.330002,-15.18261 -79.728821,-4.465477c-63.398827,10.717133 -11.527061,14.289513 -62.438236,26.792839c-50.911176,12.503319 -83.571177,40.189255 -22.093529,1.786186z" stroke-width="0" fill="#7f00ff"/>
  <path stroke="#000000" id="svg_9" fill-opacity="0.6" d="m68.59938,88.581474c45.955467,-23.298843 22.97773,-17.338669 61.034622,-25.466164c38.05687,-8.12751 47.391571,4.334663 82.576248,-3.251007c35.184662,-7.585663 68.215164,-30.34267 68.215164,-30.34267c0,0 -32.312439,29.259007 -43.083267,33.593678c-10.770813,4.334663 -20.105515,10.836662 -45.955475,10.836662c-25.84996,0 -12.20694,-9.211166 -59.598511,-2.709167c-47.391594,6.501991 -8.616653,8.669342 -46.673538,16.255005c-38.056881,7.58567 -62.470728,24.382515 -16.515244,1.083664z" stroke-width="0" fill="#7f00ff"/>
 </g>
 <g>
  <title>Layer 1</title>
  <text transform="matrix(3.88288 0 0 3.54545 -166.27 -188.273)" stroke="#000000" xml:space="preserve" text-anchor="middle" font-family="serif" font-size="24" id="svg_1" y="77" x="66" stroke-width="0" fill="#aad4ff">O</text>
  <text transform="matrix(5.93303 0 0 3.4149 -563.512 -310.97)" stroke="#000000" xml:space="preserve" text-anchor="middle" font-family="serif" font-size="24" id="svg_2" y="117.480842" x="116.805801" stroke-width="0" fill="#aaffd4">J</text>
  <text transform="matrix(4.40803 0 0 3.35294 -611.854 -218.529)" stroke="#000000" xml:space="preserve" text-anchor="middle" font-family="serif" font-size="24" id="svg_3" y="87.912281" x="178.504557" stroke-width="0" fill="#aaaaff">B</text>
  <text transform="matrix(4.30289 0 0 4.09453 -866.584 -404.239)" stroke="#000000" xml:space="preserve" text-anchor="middle" font-family="serif" font-size="24" id="svg_4" y="121.069261" x="253.33747" stroke-width="0" fill="#aaffd4">A</text>
 </g>
<head/></svg>
